<svg data-v-fde0c5aa="" xmlns="http://www.w3.org/2000/svg" viewBox="0 0 300 300" class="iconLeft"><!----><defs data-v-fde0c5aa=""><!----></defs><rect data-v-fde0c5aa="" fill="transparent" x="0" y="0" width="300px" height="300px" class="logo-background-square"></rect><defs data-v-fde0c5aa=""><!----></defs><g data-v-fde0c5aa="" id="1c4b5435-8bb4-468c-84d9-f89401028638" fill="#000000" transform="matrix(2.4554747773778525,0,0,2.4554747773778525,87.35556539637601,128.57598280155057)"><path d="M0.34 5.47L3.54 5.47L3.54 13.65L4.76 13.65L4.76 5.47L7.97 5.47L7.97 4.40L0.34 4.40ZM13.02 13.75L13.24 12.77C12.39 12.92 12.45 12.42 12.45 11.91L12.45 9.37C12.45 7.74 11.77 7.03 10.12 7.03C8.26 7.03 7.41 7.81 7.56 9.04L8.67 9.24C8.60 8.29 9.17 7.95 10.04 7.95C11.03 7.95 11.33 8.41 11.33 9.52L11.33 9.88C8.90 9.90 7.34 10.64 7.34 12.11C7.34 13.29 8.33 13.85 9.37 13.85C10.37 13.85 11.13 13.29 11.44 12.71C11.48 13.30 11.80 13.90 13.02 13.75ZM11.33 11.42C11.27 12.25 10.43 12.92 9.58 12.92C8.92 12.92 8.54 12.57 8.54 12.03C8.54 11.20 9.35 10.75 11.33 10.74ZM14.69 13.65L15.62 13.65L15.68 12.80C16.02 13.38 16.58 13.85 17.65 13.85C19.59 13.85 20.45 12.24 20.45 10.22C20.45 8.64 19.75 7.03 17.77 7.03C16.84 7.03 16.20 7.52 15.81 8.04L15.81 3.60L14.69 3.60ZM17.63 12.92C16.52 12.92 15.82 11.93 15.82 10.49C15.82 9.04 16.49 7.95 17.67 7.95C18.65 7.95 19.25 8.71 19.25 10.30C19.25 11.79 18.80 12.92 17.63 12.92ZM22.15 11.89C22.15 13.26 22.95 13.85 24.07 13.85C25.54 13.85 26.17 12.95 26.40 12.47L26.46 13.65L27.48 13.65L27.48 7.22L26.36 7.22L26.36 10.85C26.17 11.54 25.61 12.88 24.25 12.88C23.58 12.88 23.27 12.52 23.27 11.56L23.27 7.22L22.15 7.22ZM29.64 13.65L30.76 13.65L30.76 3.60L29.64 3.60ZM38.14 13.75L38.36 12.77C37.51 12.92 37.56 12.42 37.56 11.91L37.56 9.37C37.56 7.74 36.89 7.03 35.24 7.03C33.38 7.03 32.52 7.81 32.68 9.04L33.78 9.24C33.71 8.29 34.29 7.95 35.15 7.95C36.15 7.95 36.44 8.41 36.44 9.52L36.44 9.88C34.02 9.90 32.45 10.64 32.45 12.11C32.45 13.29 33.45 13.85 34.48 13.85C35.49 13.85 36.25 13.29 36.55 12.71C36.60 13.30 36.92 13.90 38.14 13.75ZM36.44 11.42C36.39 12.25 35.55 12.92 34.69 12.92C34.03 12.92 33.66 12.57 33.66 12.03C33.66 11.20 34.47 10.75 36.44 10.74ZM43.41 13.65L44.63 13.65L44.63 9.66L45.91 9.66C47.15 9.66 47.42 10.36 47.57 11.16C47.77 12.18 47.92 13.85 49.64 13.73L49.87 12.70C49.07 12.71 48.90 11.93 48.73 10.84C48.59 9.91 48.10 9.51 47.70 9.32C48.47 9.02 49.36 8.34 49.36 6.89C49.36 5.33 48.37 4.40 46.24 4.40L43.41 4.40ZM46.10 5.43C47.53 5.43 48.05 5.95 48.05 6.97C48.05 8.01 47.54 8.62 46.10 8.62L44.63 8.62L44.63 5.43ZM56.84 13.75L57.06 12.77C56.21 12.92 56.27 12.42 56.27 11.91L56.27 9.37C56.27 7.74 55.59 7.03 53.94 7.03C52.08 7.03 51.23 7.81 51.38 9.04L52.49 9.24C52.42 8.29 52.99 7.95 53.86 7.95C54.85 7.95 55.15 8.41 55.15 9.52L55.15 9.88C52.72 9.90 51.16 10.64 51.16 12.11C51.16 13.29 52.15 13.85 53.19 13.85C54.19 13.85 54.95 13.29 55.26 12.71C55.30 13.30 55.62 13.90 56.84 13.75ZM55.15 11.42C55.09 12.25 54.25 12.92 53.40 12.92C52.74 12.92 52.36 12.57 52.36 12.03C52.36 11.20 53.17 10.75 55.15 10.74ZM58.03 11.86C57.89 13.27 59.32 13.85 60.62 13.85C62.09 13.85 63.15 13.12 63.15 11.84C63.15 9.46 59.39 10.36 59.39 8.75C59.39 8.20 59.86 7.95 60.59 7.95C61.74 7.95 61.91 8.64 61.82 9.09L62.94 8.89C63.17 7.64 62.01 7.03 60.65 7.03C59.02 7.03 58.24 7.87 58.24 8.95C58.24 11.28 61.98 10.49 61.98 12.05C61.98 12.64 61.40 12.92 60.58 12.92C59.50 12.92 59.02 12.38 59.09 11.69ZM70.08 13.75L70.31 12.77C69.45 12.92 69.51 12.42 69.51 11.91L69.51 9.37C69.51 7.74 68.84 7.03 67.19 7.03C65.32 7.03 64.47 7.81 64.62 9.04L65.73 9.24C65.66 8.29 66.23 7.95 67.10 7.95C68.10 7.95 68.39 8.41 68.39 9.52L68.39 9.88C65.97 9.90 64.40 10.64 64.40 12.11C64.40 13.29 65.39 13.85 66.43 13.85C67.44 13.85 68.19 13.29 68.50 12.71C68.54 13.30 68.87 13.90 70.08 13.75ZM68.39 11.42C68.33 12.25 67.49 12.92 66.64 12.92C65.98 12.92 65.60 12.57 65.60 12.03C65.60 11.20 66.42 10.75 68.39 10.74Z"></path></g><defs data-v-fde0c5aa=""><linearGradient data-v-fde0c5aa="" gradientTransform="rotate(25)" id="b07a1cb9-c905-482e-9f47-b1dae3a98e47" x1="0%" y1="0%" x2="100%" y2="0%"><stop data-v-fde0c5aa="" offset="0%" stop-color="#783192" stop-opacity="1"></stop><stop data-v-fde0c5aa="" offset="100%" stop-color="#59BCC8" stop-opacity="1"></stop></linearGradient></defs><g data-v-fde0c5aa="" id="cf4d02e4-421e-40ec-82fe-8063c0866b88" stroke="none" fill="url(#b07a1cb9-c905-482e-9f47-b1dae3a98e47)" transform="matrix(0.41926735153136735,0,0,0.41926735153136735,36.63184503847559,129.0364241044446)"><g clip-rule="evenodd"><path d="M66.087 23.87c-.186-1.733-.296-3.075-.389-4.2-.265-3.242-.412-5.027-1.931-10.699-1.07-3.993-2.626-3.993-3.292-3.993-1.6 0-3.756 1.142-5.657 2.15-2.058 1.09-4.002 2.12-5.785 2.12-2.395 0-4.672-1.229-6.875-2.416-1.653-.892-3.361-1.813-4.563-1.813-.445 0-1.798 0-2.911 4.08-1.297 4.757-1.396 7.029-1.547 10.47-.054 1.223-.113 2.573-.232 4.206 5.796 1.461 11.538 2.202 17.089 2.202h.002a62.634 62.634 0 0 0 16.091-2.107z"></path><path d="M91.712 21.856a1.236 1.236 0 0 0-1.215-.52 279.163 279.163 0 0 1-20.971 1.988c.054.503.112 1.039.182 1.62.1.844-.426 1.636-1.241 1.873a66.078 66.078 0 0 1-18.47 2.636h-.001c-6.306 0-12.832-.904-19.397-2.687a1.74 1.74 0 0 1-1.276-1.831c.063-.717.113-1.379.155-2.002a343.494 343.494 0 0 1-18.308-1.848 2.944 2.944 0 0 0-1.796.3 5.002 5.002 0 0 0-.412.23c-.624.393-.944.989-.928 1.725.01.447.167.98 1.234 1.839 7.368 5.938 21.908 9.344 39.892 9.344 7.858 0 15.866-.664 23.157-1.921 10.868-1.874 17.432-5.043 19.51-9.422.219-.461.18-.918-.115-1.324zM70.728 40.501a21.21 21.21 0 0 0-.402-4.059c-6.769 1.02-14.028 1.559-21.165 1.559-5.365 0-12.883-.314-20.447-1.646a21.054 21.054 0 0 0-.42 4.146c0 11.7 9.518 21.217 21.218 21.217 11.697.001 21.216-9.517 21.216-21.217zM41.93 64l7.843 11.605 7.611-11.703A24.584 24.584 0 0 1 41.93 64zM65.116 78.072l3.184 2.156a1.743 1.743 0 0 1 .407 2.496L59.31 95.021h7.386v-8.234a1.739 1.739 0 1 1 3.477 0v8.234h11.461v-10.33a31.518 31.518 0 0 0-3.763-14.932l-12.755 8.313z"></path><path d="M64.826 82.074L61 79.482a1.738 1.738 0 0 1 .025-2.896L79.3 64.678l-10.474-8.816a24.902 24.902 0 0 1-5.279 4.943L51.52 79.297v15.725h3.413l9.893-12.948zM40.426 95.021l-9.507-12.289a1.738 1.738 0 0 1 .401-2.504l3.185-2.156L21.7 69.726a31.543 31.543 0 0 0-3.769 14.965v10.33h10.601v-8.234a1.74 1.74 0 1 1 3.478 0v8.234h8.416z"></path><path d="M35.659 60.936a24.904 24.904 0 0 1-5.226-4.771L20.32 64.679l18.275 11.908a1.74 1.74 0 0 1 .026 2.896l-3.818 2.586 9.908 12.811c.035.045.06.096.089.143h3.242V79.256l-12.383-18.32z"></path></g></g><!----></svg>