<svg width="300" height="300" xmlns="http://www.w3.org/2000/svg" class="iconLeft">
 <!---->
 <defs>
  <!---->
  <linearGradient y2="0%" x2="100%" y1="0%" x1="0%" id="b07a1cb9-c905-482e-9f47-b1dae3a98e47" gradientTransform="rotate(25)">
   <stop stop-color="#783192" offset="0%"/>
   <stop stop-color="#59BCC8" offset="100%"/>
  </linearGradient>
 </defs>
 <defs>
  <!---->
 </defs>

 <!---->
 <g>
  <title>Layer 1</title>
  <path id="svg_1" d="m0,0l300,0l0,300l-300,0l0,-300z" opacity="undefined" fill="transparent"/>
  <g transform="matrix(1.95524 0 0 2.23018 -220.979 -59.9476)" fill="url(#b07a1cb9-c905-482e-9f47-b1dae3a98e47)" id="cf4d02e4-421e-40ec-82fe-8063c0866b88">
   <g id="svg_3" clip-rule="evenodd">
    <path id="svg_4" d="m206.65132,66.61251c-0.186,-1.733 -0.296,-3.075 -0.389,-4.2c-0.265,-3.242 -0.412,-5.027 -1.931,-10.699c-1.07,-3.993 -2.626,-3.993 -3.292,-3.993c-1.6,0 -3.756,1.142 -5.657,2.15c-2.058,1.09 -4.002,2.12 -5.785,2.12c-2.395,0 -4.672,-1.229 -6.875,-2.416c-1.653,-0.892 -3.361,-1.813 -4.563,-1.813c-0.445,0 -1.798,0 -2.911,4.08c-1.297,4.757 -1.396,7.029 -1.547,10.47c-0.054,1.223 -0.113,2.573 -0.232,4.206c5.796,1.461 11.538,2.202 17.089,2.202l0.002,0a62.634,62.634 0 0 0 16.091,-2.107z"/>
    <path id="svg_5" d="m232.27632,64.59851a1.236,1.236 0 0 0 -1.215,-0.52a279.163,279.163 0 0 1 -20.971,1.988c0.054,0.503 0.112,1.039 0.182,1.62c0.1,0.844 -0.426,1.636 -1.241,1.873a66.078,66.078 0 0 1 -18.47,2.636l-0.001,0c-6.306,0 -12.832,-0.904 -19.397,-2.687a1.74,1.74 0 0 1 -1.276,-1.831c0.063,-0.717 0.113,-1.379 0.155,-2.002a343.494,343.494 0 0 1 -18.308,-1.848a2.944,2.944 0 0 0 -1.796,0.3a5.002,5.002 0 0 0 -0.412,0.23c-0.624,0.393 -0.944,0.989 -0.928,1.725c0.01,0.447 0.167,0.98 1.234,1.839c7.368,5.938 21.908,9.344 39.892,9.344c7.858,0 15.866,-0.664 23.157,-1.921c10.868,-1.874 17.432,-5.043 19.51,-9.422c0.219,-0.461 0.18,-0.918 -0.115,-1.324zm-20.984,18.645a21.21,21.21 0 0 0 -0.402,-4.059c-6.769,1.02 -14.028,1.559 -21.165,1.559c-5.365,0 -12.883,-0.314 -20.447,-1.646a21.054,21.054 0 0 0 -0.42,4.146c0,11.7 9.518,21.217 21.218,21.217c11.697,0.001 21.216,-9.517 21.216,-21.217zm-28.798,23.499l7.843,11.605l7.611,-11.703a24.584,24.584 0 0 1 -15.454,0.098zm23.186,14.072l3.184,2.156a1.743,1.743 0 0 1 0.407,2.496l-9.397,12.297l7.386,0l0,-8.234a1.739,1.739 0 1 1 3.477,0l0,8.234l11.461,0l0,-10.33a31.518,31.518 0 0 0 -3.763,-14.932l-12.755,8.313z"/>
    <path id="svg_6" d="m205.39032,124.81651l-3.826,-2.592a1.738,1.738 0 0 1 0.025,-2.896l18.275,-11.908l-10.474,-8.816a24.902,24.902 0 0 1 -5.279,4.943l-12.027,18.492l0,15.725l3.413,0l9.893,-12.948zm-24.4,12.947l-9.507,-12.289a1.738,1.738 0 0 1 0.401,-2.504l3.185,-2.156l-12.805,-8.346a31.543,31.543 0 0 0 -3.769,14.965l0,10.33l10.601,0l0,-8.234a1.74,1.74 0 1 1 3.478,0l0,8.234l8.416,0z"/>
    <path id="svg_7" d="m176.22332,103.67851a24.904,24.904 0 0 1 -5.226,-4.771l-10.113,8.514l18.275,11.908a1.74,1.74 0 0 1 0.026,2.896l-3.818,2.586l9.908,12.811c0.035,0.045 0.06,0.096 0.089,0.143l3.242,0l0,-15.767l-12.383,-18.32z"/>
   </g>
  </g>
 </g>
</svg>